<svg width="204" height="30" viewBox="0 0 204 30" fill="none" xmlns="http://www.w3.org/2000/svg">
<path d="M28.0872 15.241V2.81252C28.0872 1.77681 28.8735 1 29.6599 1C30.4462 1 31.2326 1.77681 31.2326 2.81252V14.7231C31.2326 20.6784 33.5915 23.0088 39.6202 23.0088H43.814C44.8625 23.0088 45.3867 23.7856 45.3867 24.8213C45.3867 25.857 44.6003 26.6338 43.814 26.6338H39.096C32.0189 26.6338 28.0872 22.491 28.0872 15.241ZM85.4901 1.25894H87.8492C94.9262 1.25894 99.12 5.40176 99.12 12.6517V25.0802C99.12 26.1159 98.3336 26.8927 97.5473 26.8927C96.4989 26.8927 95.7125 26.1159 95.9746 25.0802V13.1696C95.9746 7.21429 93.6157 4.88391 87.8492 4.88391H86.2765C80.5099 4.88391 77.8888 7.21429 77.8888 13.1696V25.0802C77.8888 26.1159 77.1024 26.8927 76.3161 26.8927C75.2676 26.8927 74.4814 26.1159 74.7435 25.0802V12.6517C74.4814 5.40176 78.413 1.25894 85.4901 1.25894ZM11.3119 1.25894H13.6709C20.4859 1.25894 24.9419 4.88394 24.9419 11.875C24.9419 18.866 20.4859 22.4909 13.6709 22.4909H8.69077C7.64232 22.4909 7.11808 21.7142 7.11808 20.6785C7.11808 19.6428 7.90443 18.866 8.69077 18.866H13.1467C18.6511 18.866 21.2722 16.7946 21.2722 11.616C21.2722 6.43749 18.6511 4.36602 13.1467 4.36602H11.574C5.80754 4.36602 3.18637 6.6964 3.18637 12.6517V24.5624C3.18637 25.5981 2.40001 26.3748 1.61367 26.3748C0.82733 26.3748 -0.221061 25.5981 0.0410531 24.5624V12.1338C0.0410531 5.40173 4.23484 1.25894 11.3119 1.25894ZM113.798 1.25894H116.157C123.234 1.25894 127.428 5.40176 127.428 12.6517V18.607C127.428 19.6427 126.642 20.4195 125.856 20.4195C124.807 20.4195 124.021 19.6427 124.283 18.607V13.1696C124.283 7.21429 121.924 4.88391 116.157 4.88391H114.585C108.818 4.88391 106.197 7.21429 106.197 13.1696V14.7231C106.197 20.6784 108.556 23.0088 114.585 23.0088H124.021C126.38 23.0088 127.166 23.5266 128.477 25.0802L129.263 25.857C130.049 26.6338 130.312 27.6695 129.525 28.4463C128.739 29.2231 127.69 29.2231 126.904 28.1874L126.118 27.4106C125.593 26.8928 125.331 26.6338 124.283 26.6338H114.323C107.245 26.6338 103.052 22.491 103.052 15.241V12.6517C102.527 5.40176 106.459 1.25894 113.798 1.25894ZM49.5805 13.1696V14.7231C49.5805 20.6784 51.9395 23.0088 57.9681 23.0088H59.5408C65.3073 23.0088 67.6664 20.4195 67.6664 14.7231V13.1696C67.6664 7.21429 65.3073 4.88391 59.5408 4.88391H57.9681C51.9395 4.88391 49.5805 7.21429 49.5805 13.1696ZM57.4439 1.25894H59.803C66.88 1.25894 71.0738 5.40176 71.0738 12.6517V15.241C71.0738 22.491 67.1421 26.6338 59.803 26.6338H57.4439C50.3669 26.6338 46.173 22.491 46.173 15.241V12.6517C46.173 5.40176 50.1048 1.25894 57.4439 1.25894Z" fill="black"/>
<rect x="147" y="1" width="56" height="28" rx="8" stroke="black" stroke-width="2"/>
<path d="M164.169 21.329V18.3483H157.369L157 17.3248L164.298 8.67012H165.569V17.1632H167.578V18.3483H165.569V21.329H164.169ZM158.751 17.1632H164.169V10.6812L158.751 17.1632Z" fill="black"/>
<path d="M179.094 19.6591C178.087 20.916 176.772 21.5444 175.15 21.5444C173.529 21.5444 172.214 20.922 171.207 19.677C170.212 18.4201 169.714 16.8759 169.714 15.0444C169.714 13.2369 170.218 11.7047 171.225 10.4477C172.245 9.17887 173.566 8.54443 175.187 8.54443C176.809 8.54443 178.117 9.17289 179.113 10.4298C180.108 11.6747 180.605 13.2129 180.605 15.0444C180.605 16.852 180.102 18.3902 179.094 19.6591ZM172.331 18.7254C173.068 19.7429 174.02 20.2516 175.187 20.2516C176.354 20.2516 177.294 19.7489 178.007 18.7433C178.732 17.7258 179.094 16.4929 179.094 15.0444C179.094 13.6199 178.726 12.3989 177.988 11.3815C177.264 10.352 176.318 9.83725 175.15 9.83725C173.983 9.83725 173.037 10.346 172.312 11.3635C171.588 12.369 171.225 13.596 171.225 15.0444C171.225 16.4689 171.594 17.6959 172.331 18.7254Z" fill="black"/>
<path d="M192.268 19.6591C191.26 20.916 189.946 21.5444 188.324 21.5444C186.702 21.5444 185.388 20.922 184.38 19.677C183.385 18.4201 182.888 16.8759 182.888 15.0444C182.888 13.2369 183.391 11.7047 184.399 10.4477C185.418 9.17887 186.739 8.54443 188.361 8.54443C189.983 8.54443 191.291 9.17289 192.286 10.4298C193.281 11.6747 193.779 13.2129 193.779 15.0444C193.779 16.852 193.275 18.3902 192.268 19.6591ZM185.504 18.7254C186.242 19.7429 187.194 20.2516 188.361 20.2516C189.528 20.2516 190.468 19.7489 191.181 18.7433C191.905 17.7258 192.268 16.4929 192.268 15.0444C192.268 13.6199 191.899 12.3989 191.162 11.3815C190.437 10.352 189.491 9.83725 188.324 9.83725C187.157 9.83725 186.211 10.346 185.486 11.3635C184.761 12.369 184.399 13.596 184.399 15.0444C184.399 16.4689 184.767 17.6959 185.504 18.7254Z" fill="black"/>
</svg>
