<svg width="203" height="30" viewBox="0 0 203 30" fill="none" xmlns="http://www.w3.org/2000/svg">
<path d="M28.0872 15.241V2.81252C28.0872 1.77681 28.8735 1 29.6599 1C30.4462 1 31.2326 1.77681 31.2326 2.81252V14.7231C31.2326 20.6784 33.5915 23.0088 39.6202 23.0088H43.814C44.8625 23.0088 45.3867 23.7856 45.3867 24.8213C45.3867 25.857 44.6003 26.6338 43.814 26.6338H39.096C32.0189 26.6338 28.0872 22.491 28.0872 15.241ZM85.4901 1.25894H87.8492C94.9262 1.25894 99.12 5.40176 99.12 12.6517V25.0802C99.12 26.1159 98.3336 26.8927 97.5473 26.8927C96.4989 26.8927 95.7125 26.1159 95.9746 25.0802V13.1696C95.9746 7.21429 93.6157 4.88391 87.8492 4.88391H86.2765C80.5099 4.88391 77.8888 7.21429 77.8888 13.1696V25.0802C77.8888 26.1159 77.1024 26.8927 76.3161 26.8927C75.2676 26.8927 74.4814 26.1159 74.7435 25.0802V12.6517C74.4814 5.40176 78.413 1.25894 85.4901 1.25894ZM11.3119 1.25894H13.6709C20.4859 1.25894 24.9419 4.88394 24.9419 11.875C24.9419 18.866 20.4859 22.4909 13.6709 22.4909H8.69077C7.64232 22.4909 7.11808 21.7142 7.11808 20.6785C7.11808 19.6428 7.90443 18.866 8.69077 18.866H13.1467C18.6511 18.866 21.2722 16.7946 21.2722 11.616C21.2722 6.43749 18.6511 4.36602 13.1467 4.36602H11.574C5.80754 4.36602 3.18637 6.6964 3.18637 12.6517V24.5624C3.18637 25.5981 2.40001 26.3748 1.61367 26.3748C0.82733 26.3748 -0.221061 25.5981 0.0410531 24.5624V12.1338C0.0410531 5.40173 4.23484 1.25894 11.3119 1.25894ZM113.798 1.25894H116.157C123.234 1.25894 127.428 5.40176 127.428 12.6517V18.607C127.428 19.6427 126.642 20.4195 125.856 20.4195C124.807 20.4195 124.021 19.6427 124.283 18.607V13.1696C124.283 7.21429 121.924 4.88391 116.157 4.88391H114.585C108.818 4.88391 106.197 7.21429 106.197 13.1696V14.7231C106.197 20.6784 108.556 23.0088 114.585 23.0088H124.021C126.38 23.0088 127.166 23.5266 128.477 25.0802L129.263 25.857C130.049 26.6338 130.312 27.6695 129.525 28.4463C128.739 29.2231 127.69 29.2231 126.904 28.1874L126.118 27.4106C125.593 26.8928 125.331 26.6338 124.283 26.6338H114.323C107.245 26.6338 103.052 22.491 103.052 15.241V12.6517C102.527 5.40176 106.459 1.25894 113.798 1.25894ZM49.5805 13.1696V14.7231C49.5805 20.6784 51.9395 23.0088 57.9681 23.0088H59.5408C65.3073 23.0088 67.6664 20.4195 67.6664 14.7231V13.1696C67.6664 7.21429 65.3073 4.88391 59.5408 4.88391H57.9681C51.9395 4.88391 49.5805 7.21429 49.5805 13.1696ZM57.4439 1.25894H59.803C66.88 1.25894 71.0738 5.40176 71.0738 12.6517V15.241C71.0738 22.491 67.1421 26.6338 59.803 26.6338H57.4439C50.3669 26.6338 46.173 22.491 46.173 15.241V12.6517C46.173 5.40176 50.1048 1.25894 57.4439 1.25894Z" fill="black"/>
<rect x="146" y="1" width="56" height="28" rx="8" stroke="black" stroke-width="2"/>
<path d="M162.376 21.5444C160.693 21.5444 159.18 20.8801 157.836 19.5513L158.78 18.5279C159.979 19.677 161.184 20.2516 162.394 20.2516C163.303 20.2516 164.041 19.9883 164.61 19.4616C165.179 18.9349 165.464 18.2585 165.464 17.4326C165.464 16.6545 165.167 16.02 164.574 15.5292C163.993 15.0384 163.236 14.7931 162.304 14.7931C161.432 14.7931 160.542 15.0325 159.634 15.5113L158.671 14.8828L159.035 8.7599H166.354V10.0707H160.288L160.015 14.0928C160.875 13.7217 161.71 13.5361 162.522 13.5361C163.793 13.5361 164.84 13.8893 165.664 14.5955C166.499 15.2898 166.917 16.2295 166.917 17.4146C166.917 18.6356 166.493 19.6291 165.645 20.3953C164.798 21.1614 163.708 21.5444 162.376 21.5444Z" fill="black"/>
<path d="M178.364 19.6591C177.371 20.916 176.076 21.5444 174.477 21.5444C172.879 21.5444 171.584 20.922 170.591 19.677C169.61 18.4201 169.12 16.8759 169.12 15.0444C169.12 13.2369 169.616 11.7047 170.609 10.4477C171.614 9.17887 172.916 8.54443 174.514 8.54443C176.112 8.54443 177.401 9.17289 178.382 10.4298C179.363 11.6747 179.853 13.2129 179.853 15.0444C179.853 16.852 179.357 18.3902 178.364 19.6591ZM171.699 18.7254C172.425 19.7429 173.364 20.2516 174.514 20.2516C175.664 20.2516 176.59 19.7489 177.292 18.7433C178.007 17.7258 178.364 16.4929 178.364 15.0444C178.364 13.6199 178.001 12.3989 177.274 11.3815C176.56 10.352 175.628 9.83725 174.477 9.83725C173.327 9.83725 172.395 10.346 171.681 11.3635C170.966 12.369 170.609 13.596 170.609 15.0444C170.609 16.4689 170.972 17.6959 171.699 18.7254Z" fill="black"/>
<path d="M191.347 19.6591C190.354 20.916 189.058 21.5444 187.46 21.5444C185.862 21.5444 184.566 20.922 183.574 19.677C182.593 18.4201 182.102 16.8759 182.102 15.0444C182.102 13.2369 182.599 11.7047 183.592 10.4477C184.597 9.17887 185.898 8.54443 187.496 8.54443C189.095 8.54443 190.384 9.17289 191.365 10.4298C192.346 11.6747 192.836 13.2129 192.836 15.0444C192.836 16.852 192.34 18.3902 191.347 19.6591ZM184.681 18.7254C185.408 19.7429 186.346 20.2516 187.496 20.2516C188.647 20.2516 189.573 19.7489 190.275 18.7433C190.99 17.7258 191.347 16.4929 191.347 15.0444C191.347 13.6199 190.983 12.3989 190.257 11.3815C189.543 10.352 188.61 9.83725 187.46 9.83725C186.31 9.83725 185.378 10.346 184.663 11.3635C183.949 12.369 183.592 13.596 183.592 15.0444C183.592 16.4689 183.955 17.6959 184.681 18.7254Z" fill="black"/>
</svg>
