<svg width="13" height="19" viewBox="0 0 13 19" fill="none" xmlns="http://www.w3.org/2000/svg">
<path fill-rule="evenodd" clip-rule="evenodd" d="M7.30388 17.9197C11.0974 12.8385 12.9941 9.17409 12.9941 6.92636C13.0695 5.08408 12.4158 3.28686 11.1761 1.92832C10.5757 1.29445 9.84881 0.795418 9.04312 0.463965C8.23742 0.132511 7.37114 -0.0238689 6.50111 0.0050859C5.62324 -0.0306665 4.74789 0.122401 3.93355 0.454062C3.11921 0.785722 2.38463 1.28834 1.7789 1.92832C0.556365 3.29435 -0.0800939 5.09071 0.00807792 6.92636C0.00807792 9.182 1.90483 12.8464 5.69833 17.9197L5.8518 18.1334L6.50111 19L7.15041 18.1334L7.30388 17.9197ZM6.50111 1.29911C5.81109 1.26791 5.12241 1.38521 4.4811 1.64317C3.83979 1.90114 3.26064 2.29382 2.78237 2.79496C2.27699 3.35129 1.88635 4.00288 1.63305 4.71203C1.37975 5.42118 1.26882 6.17381 1.30668 6.92636C1.45239 8.32228 1.90396 9.66838 2.6289 10.8678C3.77186 12.94 5.06615 14.9241 6.50111 16.8037C7.93607 14.9241 9.23035 12.94 10.3733 10.8678C11.0983 9.66838 11.5498 8.32228 11.6955 6.92636C11.7334 6.17381 11.6225 5.42118 11.3692 4.71203C11.1159 4.00288 10.7252 3.35129 10.2198 2.79496C9.74369 2.28953 9.16548 1.89242 8.52407 1.63032C7.88265 1.36822 7.19289 1.24719 6.50111 1.27537V1.29911ZM6.20597 3.56663H6.79625C7.1393 3.52267 7.48776 3.55503 7.81701 3.66142C8.14625 3.76781 8.44824 3.94563 8.70161 4.18231C8.95499 4.41899 9.15357 4.70875 9.28332 5.03112C9.41307 5.35348 9.47082 5.70057 9.45249 6.04784C9.47082 6.39512 9.41307 6.74221 9.28332 7.06457C9.15357 7.38693 8.95499 7.6767 8.70161 7.91338C8.44824 8.15006 8.14625 8.32788 7.81701 8.43427C7.48776 8.54066 7.1393 8.57301 6.79625 8.52905H5.61569C5.56254 8.5307 5.50961 8.52138 5.46018 8.50168C5.41074 8.48198 5.36583 8.45231 5.32823 8.41449C5.29063 8.37668 5.26112 8.33152 5.24153 8.28181C5.22193 8.23209 5.21267 8.17886 5.21431 8.12541C5.21084 8.0715 5.21884 8.01746 5.23779 7.96691C5.25673 7.91636 5.28618 7.87045 5.32417 7.83225C5.36215 7.79405 5.40781 7.76443 5.45808 7.74538C5.50835 7.72633 5.56208 7.71828 5.61569 7.72177H6.66639C7.9768 7.72177 8.6261 7.23503 8.6261 6.04784C8.6261 4.86066 7.9886 4.37392 6.67819 4.37392H6.32403C4.93098 4.37392 4.35251 4.94376 4.35251 6.3209V9.0989C4.35414 9.15235 4.34488 9.20558 4.32529 9.25529C4.30569 9.30501 4.27619 9.35017 4.23858 9.38798C4.20098 9.4258 4.15608 9.45547 4.10664 9.47517C4.0572 9.49487 4.00427 9.50419 3.95112 9.50254C3.89751 9.50603 3.84377 9.49798 3.7935 9.47893C3.74323 9.45988 3.69758 9.43027 3.65959 9.39207C3.6216 9.35387 3.59215 9.30796 3.57321 9.2574C3.55427 9.20685 3.54626 9.15281 3.54973 9.0989V6.22592C3.50301 5.86452 3.53964 5.49715 3.65679 5.15227C3.77394 4.80739 3.96846 4.49426 4.2253 4.23713C4.48213 3.98 4.79438 3.78578 5.13785 3.66951C5.48132 3.55324 5.8468 3.51803 6.20597 3.56663Z" fill="black"/>
</svg>
