<svg width="15" height="14" viewBox="0 0 15 14" fill="none" xmlns="http://www.w3.org/2000/svg">
<path d="M14.3571 1.27273H0.642857C0.472361 1.27273 0.308848 1.20568 0.188288 1.08634C0.0677294 0.966999 0 0.805138 0 0.636364C0 0.467589 0.0677294 0.305728 0.188288 0.186387C0.308848 0.0670452 0.472361 0 0.642857 0H14.3571C14.5276 0 14.6912 0.0670452 14.8117 0.186387C14.9323 0.305728 15 0.467589 15 0.636364C15 0.805138 14.9323 0.966999 14.8117 1.08634C14.6912 1.20568 14.5276 1.27273 14.3571 1.27273ZM15 7C15 6.83123 14.9323 6.66936 14.8117 6.55002C14.6912 6.43068 14.5276 6.36364 14.3571 6.36364H0.642857C0.472361 6.36364 0.308848 6.43068 0.188289 6.55002C0.0677294 6.66936 2.70944e-08 6.83123 2.70944e-08 7C2.70944e-08 7.16877 0.0677294 7.33064 0.188289 7.44998C0.308848 7.56932 0.472361 7.63636 0.642857 7.63636H14.3571C14.5276 7.63636 14.6912 7.56932 14.8117 7.44998C14.9323 7.33064 15 7.16877 15 7ZM15 13.3636C15 13.1949 14.9323 13.033 14.8117 12.9137C14.6912 12.7943 14.5276 12.7273 14.3571 12.7273H8.14286C7.97236 12.7273 7.80885 12.7943 7.68829 12.9137C7.56773 13.033 7.5 13.1949 7.5 13.3636C7.5 13.5324 7.56773 13.6943 7.68829 13.8136C7.80885 13.933 7.97236 14 8.14286 14H14.3571C14.4416 14 14.5252 13.9835 14.6032 13.9516C14.6811 13.9196 14.752 13.8727 14.8117 13.8136C14.8714 13.7545 14.9188 13.6844 14.9511 13.6072C14.9834 13.53 15 13.4472 15 13.3636Z" fill="black"/>
</svg>
