<svg width="61" height="23" viewBox="0 0 61 23" fill="none" xmlns="http://www.w3.org/2000/svg">
<path d="M7.91275 23C4.97959 23 2.34183 21.8246 -0.000488281 19.4738L1.64546 17.663C3.73456 19.6961 5.83422 20.7127 7.94441 20.7127C9.52705 20.7127 10.8143 20.2469 11.8059 19.3149C12.7978 18.383 13.2936 17.1865 13.2936 15.7251C13.2936 14.3485 12.7768 13.2261 11.7426 12.3577C10.7299 11.4894 9.411 11.0552 7.78614 11.0552C6.2668 11.0552 4.7158 11.4788 3.13315 12.326L1.45555 11.2141L2.08861 0.381216H14.8446V2.70028H4.27266L3.79787 9.8163C5.29612 9.15977 6.75215 8.83149 8.16597 8.83149C10.3817 8.83149 12.2071 9.45625 13.6418 10.7058C15.0978 11.9341 15.8259 13.5967 15.8259 15.6934C15.8259 17.8536 15.0875 19.6115 13.6102 20.9668C12.1331 22.3222 10.234 23 7.91275 23ZM35.777 19.6644C34.0467 21.8881 31.7887 23 29.0032 23C26.2178 23 23.9598 21.8988 22.2295 19.6961C20.5202 17.4724 19.6656 14.7403 19.6656 11.5C19.6656 8.30203 20.5309 5.59116 22.2612 3.3674C24.0127 1.12248 26.2811 0 29.0665 0C31.852 0 34.0994 1.11188 35.8086 3.33564C37.5179 5.53822 38.3725 8.25967 38.3725 11.5C38.3725 14.698 37.5072 17.4195 35.777 19.6644ZM24.1603 18.0124C25.4265 19.8125 27.0618 20.7127 29.0665 20.7127C31.0713 20.7127 32.6856 19.8232 33.9094 18.0442C35.1546 16.2441 35.777 14.0626 35.777 11.5C35.777 8.97973 35.1439 6.81951 33.8778 5.01934C32.6327 3.19796 31.008 2.28729 29.0032 2.28729C26.9984 2.28729 25.3738 3.18739 24.1287 4.98757C22.8836 6.76657 22.2612 8.93739 22.2612 11.5C22.2612 14.0203 22.8942 16.1911 24.1603 18.0124ZM58.404 19.6644C56.6737 21.8881 54.4157 23 51.6302 23C48.8448 23 46.5868 21.8988 44.8565 19.6961C43.1472 17.4724 42.2926 14.7403 42.2926 11.5C42.2926 8.30203 43.1579 5.59116 44.8881 3.3674C46.6397 1.12248 48.9081 0 51.6935 0C54.479 0 56.7264 1.11188 58.4356 3.33564C60.1449 5.53822 60.9995 8.25967 60.9995 11.5C60.9995 14.698 60.1342 17.4195 58.404 19.6644ZM46.7873 18.0124C48.0534 19.8125 49.6887 20.7127 51.6935 20.7127C53.6983 20.7127 55.3126 19.8232 56.5364 18.0442C57.7816 16.2441 58.404 14.0626 58.404 11.5C58.404 8.97973 57.7709 6.81951 56.5048 5.01934C55.2597 3.19796 53.635 2.28729 51.6302 2.28729C49.6254 2.28729 48.0008 3.18739 46.7557 4.98757C45.5106 6.76657 44.8881 8.93739 44.8881 11.5C44.8881 14.0203 45.5212 16.1911 46.7873 18.0124Z" fill="white"/>
</svg>
